<svg id="Component_3_2" data-name="Component 3 – 2" xmlns="http://www.w3.org/2000/svg" width="82.706" height="82.706" viewBox="0 0 82.706 82.706">
  <path id="Path_10" data-name="Path 10" d="M41.353,0h0a41.353,41.353,0,0,1,0,82.706h0A41.353,41.353,0,0,1,41.353,0Z" fill="#2aa81a"/>
  <path id="Path_11" data-name="Path 11" d="M146.272,116.626a20.18,20.18,0,0,0-32.326,23.345l-2.14,10.393a.765.765,0,0,0,.122.606.785.785,0,0,0,.814.321l10.169-2.416a20.176,20.176,0,0,0,23.332-32.249ZM143.1,141.981a15.828,15.828,0,0,1-18.2,2.978l-1.42-.708-6.248,1.481v-.081l1.3-6.3-.7-1.371a15.8,15.8,0,0,1,25.24-18.346l.008.008.081.081a15.8,15.8,0,0,1-.081,22.259Z" transform="translate(-90.56 -89.619)" fill="#fff"/>
  <path id="Path_12" data-name="Path 12" d="M204.093,201.562a6.506,6.506,0,0,1-3.494,3.047c-2.664.643-6.748.02-11.849-4.718l-.061-.057c-4.442-4.145-5.618-7.594-5.337-10.332.155-1.554,1.448-2.953,2.538-3.876a1.457,1.457,0,0,1,2.274.521l1.651,3.734a1.46,1.46,0,0,1-.179,1.481l-.814,1.078a1.432,1.432,0,0,0-.114,1.582,15.7,15.7,0,0,0,2.823,3.132,16.678,16.678,0,0,0,3.905,2.8,1.424,1.424,0,0,0,1.55-.325l.956-.972a1.456,1.456,0,0,1,1.44-.382l3.909,1.123a1.461,1.461,0,0,1,.8,2.168Z" transform="translate(-152.111 -153.813)" fill="#fff"/>
</svg>
