<svg xmlns="http://www.w3.org/2000/svg" width="35.33" height="35.633" viewBox="0 0 35.33 35.633">
  <g id="Group_281" data-name="Group 281" transform="translate(0 0)">
    <path id="Path_7" data-name="Path 7" d="M142,115.887a17.685,17.685,0,0,0-28.329,20.458l-1.875,9.108a.67.67,0,0,0,.107.531.688.688,0,0,0,.713.282l8.912-2.117a17.681,17.681,0,0,0,20.448-28.262Zm-2.784,22.219a13.871,13.871,0,0,1-15.949,2.609l-1.244-.62-5.476,1.3v-.071l1.137-5.522-.61-1.2a13.844,13.844,0,0,1,22.12-16.077l.007.007.071.071a13.849,13.849,0,0,1-.071,19.507Z" transform="translate(-111.756 -110.649)" fill="#fff"/>
    <path id="Path_8" data-name="Path 8" d="M201.524,199.549a5.7,5.7,0,0,1-3.062,2.67c-2.335.563-5.914.018-10.384-4.135l-.053-.05c-3.893-3.632-4.923-6.655-4.677-9.055a5.745,5.745,0,0,1,2.224-3.4,1.276,1.276,0,0,1,1.993.456l1.447,3.273a1.28,1.28,0,0,1-.157,1.3l-.713.945a1.255,1.255,0,0,0-.1,1.387,13.759,13.759,0,0,0,2.474,2.745,14.615,14.615,0,0,0,3.422,2.453,1.248,1.248,0,0,0,1.358-.285l.838-.852a1.276,1.276,0,0,1,1.262-.335l3.426.984a1.28,1.28,0,0,1,.7,1.9Z" transform="translate(-174.544 -176.133)" fill="#fff"/>
  </g>
</svg>
